<svg width="15" height="15" viewBox="0 0 15 15" fill="none" xmlns="http://www.w3.org/2000/svg">
<path d="M14.9359 14.5928L7.80898 7.46557L14.9016 0.372957C14.987 0.287757 14.987 0.149307 14.9016 0.0639564C14.8162 -0.0212438 14.6781 -0.0212438 14.5927 0.0639564L7.50013 7.15657L0.407964 0.0639564C0.322613 -0.0213938 0.184463 -0.0212438 0.0991128 0.0639564C0.0137625 0.149307 0.0137625 0.287607 0.0991128 0.372957L7.19128 7.46557L0.0640127 14.5928C-0.0213376 14.6782 -0.0213376 14.8165 0.0640127 14.9018C0.106613 14.9444 0.162563 14.9659 0.218513 14.9659C0.274463 14.9659 0.330263 14.9444 0.373013 14.9018L7.50028 7.77458L14.6272 14.9018C14.6698 14.9444 14.7258 14.9659 14.7817 14.9659C14.8377 14.9659 14.8935 14.9444 14.9362 14.9018C15.0213 14.8165 15.0213 14.6782 14.9359 14.5928Z" fill="#231F20"/>
</svg>
